<?xml version="1.0" standalone="no"?><svg xmlns="http://www.w3.org/2000/svg" viewBox="0 0 1440 320"><path fill="#5c89c1" fill-opacity="1" d="M0,288L21.8,272C43.6,256,87,224,131,224C174.5,224,218,256,262,266.7C305.5,277,349,267,393,229.3C436.4,192,480,128,524,128C567.3,128,611,192,655,202.7C698.2,213,742,171,785,170.7C829.1,171,873,213,916,240C960,267,1004,277,1047,245.3C1090.9,213,1135,139,1178,138.7C1221.8,139,1265,213,1309,250.7C1352.7,288,1396,288,1418,288L1440,288L1440,0L1418.2,0C1396.4,0,1353,0,1309,0C1265.5,0,1222,0,1178,0C1134.5,0,1091,0,1047,0C1003.6,0,960,0,916,0C872.7,0,829,0,785,0C741.8,0,698,0,655,0C610.9,0,567,0,524,0C480,0,436,0,393,0C349.1,0,305,0,262,0C218.2,0,175,0,131,0C87.3,0,44,0,22,0L0,0Z"></path></svg>